<svg xmlns="http://www.w3.org/2000/svg" viewBox="0 0 596.83 143.9"><defs><style>.cls-1,.cls-3{fill:#1a73e8;}.cls-2{fill:#fff;}.cls-3{font-size:44.79px;font-family:Syne-Regular, Syne;letter-spacing:0.28em;}.cls-4{letter-spacing:0.25em;}.cls-5{letter-spacing:0.28em;}</style></defs><g id="Layer_2" data-name="Layer 2"><g id="Layer_1-2" data-name="Layer 1"><path class="cls-1" d="M439.89,22.07V9.32l13-8.19a7.1,7.1,0,0,1,7.72,0l12.89,8.17V22.07L460.7,13.74a7.12,7.12,0,0,0-7.88,0Z"/><path class="cls-2" d="M131.16,83.67A28.56,28.56,0,0,1,116.64,80a25.91,25.91,0,0,1-9.88-10,29.29,29.29,0,0,1-3.55-14.51,30,30,0,0,1,3.55-14.78,26.26,26.26,0,0,1,9.88-10.1,28.19,28.19,0,0,1,14.52-3.71q10.43,0,17.52,5.48a24.35,24.35,0,0,1,9,15.05H142.33a9.91,9.91,0,0,0-4-5.91,12.32,12.32,0,0,0-7.25-2.15,12.19,12.19,0,0,0-6.72,1.88,12.49,12.49,0,0,0-4.62,5.48A20.22,20.22,0,0,0,118,55.3,21.64,21.64,0,0,0,119,62a15.12,15.12,0,0,0,2.69,5.05,11.24,11.24,0,0,0,4.14,3.18,12.78,12.78,0,0,0,5.21,1.07,13.07,13.07,0,0,0,5.11-1,10.93,10.93,0,0,0,3.92-2.74,9.83,9.83,0,0,0,2.25-4.35H157.7a24.32,24.32,0,0,1-9.08,14.88Q141.48,83.68,131.16,83.67Z"/><path class="cls-2" d="M163.62,82.38V5h14.51V36.27a19.9,19.9,0,0,1,7.14-6.83,20.75,20.75,0,0,1,10.38-2.52A21.32,21.32,0,0,1,207,29.77,17.76,17.76,0,0,1,214,38a33.24,33.24,0,0,1,2.36,13.33V82.38H202V52.61q0-6.45-2.69-10c-1.79-2.32-4.62-3.49-8.49-3.49a12.5,12.5,0,0,0-6.45,1.72,11.94,11.94,0,0,0-4.57,5,17,17,0,0,0-1.66,7.79v28.7Z"/><path class="cls-2" d="M282.49,82.38V5H297V82.38Zm35.47,0L294.85,52.71l20.75-24.5h17.09L305.92,58.84V47.34l30.09,35Z"/><path class="cls-2" d="M338.06,82.38V28.21h12.79l1.18,7.2a18.94,18.94,0,0,1,6.83-6.18,20,20,0,0,1,9.73-2.31,22.87,22.87,0,0,1,7.3,1.08,18.21,18.21,0,0,1,5.76,3.11,16,16,0,0,1,4.14,5.16,20.7,20.7,0,0,1,7.84-6.88,24.85,24.85,0,0,1,22.36.38A17.84,17.84,0,0,1,423.14,38a32.23,32.23,0,0,1,2.41,13.22V82.38h-14.4V52.5q0-6.45-2.53-9.89t-7.79-3.44a10.83,10.83,0,0,0-10.26,6.67,18.73,18.73,0,0,0-1.45,7.74v28.8H374.61V52.5q0-6.45-2.58-9.89t-7.95-3.44a10.7,10.7,0,0,0-6,1.72,11.25,11.25,0,0,0-4.09,5,18.73,18.73,0,0,0-1.45,7.74v28.8Z"/><path class="cls-2" d="M479.17,36.92a19.33,19.33,0,0,0-8.6-7.42,31.3,31.3,0,0,0-13.22-2.58,30.08,30.08,0,0,0-12.09,2.36,21.78,21.78,0,0,0-8.71,6.62A19,19,0,0,0,432.74,46h14.08a7.59,7.59,0,0,1,3.49-5.43,12.81,12.81,0,0,1,6.94-1.78,12.14,12.14,0,0,1,6,1.29A7.77,7.77,0,0,1,466.6,44a17.56,17.56,0,0,1,1.07,6.61H454.24a33.15,33.15,0,0,0-12.85,2.15,16.59,16.59,0,0,0-7.63,5.91,15.2,15.2,0,0,0-2.53,8.7,16.44,16.44,0,0,0,2.1,8.23,14.74,14.74,0,0,0,6.5,5.91A25,25,0,0,0,451,83.67a23.25,23.25,0,0,0,5.91-.7,18.08,18.08,0,0,0,4.84-2,17,17,0,0,0,3.76-3,18.38,18.38,0,0,0,2.79-3.86l1.62,8.27h12.25V48.85A22.13,22.13,0,0,0,479.17,36.92ZM467,59.6a20.24,20.24,0,0,1-1.24,5,13.15,13.15,0,0,1-2.53,4.08,11.4,11.4,0,0,1-8.81,3.81,10.73,10.73,0,0,1-4.19-.75,6,6,0,0,1-2.8-2.15,6.12,6.12,0,0,1-1-3.55,6.24,6.24,0,0,1,1-3.43,6,6,0,0,1,3.07-2.31,15.21,15.21,0,0,1,5.42-.81H467Z"/><path class="cls-2" d="M489.08,82.38V28.21H502l1.39,10a20.88,20.88,0,0,1,4.89-6A22.91,22.91,0,0,1,515,28.31a24.64,24.64,0,0,1,8.43-1.39V42.29h-4.94a22.52,22.52,0,0,0-6,.75,12.9,12.9,0,0,0-4.79,2.42A10.39,10.39,0,0,0,504.67,50a21.16,21.16,0,0,0-1.08,7.31v25Z"/><path class="cls-2" d="M526.48,82.38V5H541V36.27a19.9,19.9,0,0,1,7.14-6.83,20.75,20.75,0,0,1,10.38-2.52,21.26,21.26,0,0,1,11.38,2.85,17.7,17.7,0,0,1,7,8.22,33.06,33.06,0,0,1,2.37,13.33V82.38h-14.4V52.61q0-6.45-2.69-10c-1.79-2.32-4.63-3.49-8.49-3.49a12.5,12.5,0,0,0-6.45,1.72,11.94,11.94,0,0,0-4.57,5A17,17,0,0,0,541,53.68v28.7Z"/><path class="cls-1" d="M225,56.68V39.46L244.37,28.4a11.5,11.5,0,0,1,11.5,0l19.19,11V56.68L256,45.43a11.48,11.48,0,0,0-11.72,0Z"/><path class="cls-1" d="M275.06,53.86V71.08L255.7,82.14a11.5,11.5,0,0,1-11.5,0l-19.2-11V53.86l19.09,11.26a11.5,11.5,0,0,0,11.72,0Z"/><path class="cls-1" d="M0,56.21V27.53L34.09,9.11a21.21,21.21,0,0,1,20.25,0L88.13,27.53V56.21L54.53,37.46a21.23,21.23,0,0,0-20.63,0Z"/><path class="cls-2" d="M0,91V62.35L34.09,43.92a21.27,21.27,0,0,1,20.25,0l33.79,18.4V91L54.53,72.28a21.21,21.21,0,0,0-20.63,0Z"/><path class="cls-2" d="M88.13,86.33V115L54,133.43a21.24,21.24,0,0,1-20.25,0L0,115V86.33l33.6,18.74a21.23,21.23,0,0,0,20.63,0Z"/><text class="cls-3" transform="translate(110.83 132.53)">TECHNO<tspan class="cls-4" x="256.39" y="0">L</tspan><tspan class="cls-5" x="293.3" y="0">OGIES</tspan></text></g></g></svg>